<svg version="1.2" xmlns="http://www.w3.org/2000/svg" viewBox="0 0 287 288" width="288" height="289"><style>.a{opacity:.99;fill:#161d1c}</style><path fill-rule="evenodd" class="a" d="m132.3 0.9q74.6-3.4 122.7 53.1 46.3 61.2 24.8 135.1-24.5 70.5-95.4 93.5-23.3 7-47.5 5.1 14.5-27.6-5-52-13-26.1 3.8-49.9 22.4-24 53.3-11.7 9.1 4.7 18.3 9.3 17.6 8.2 36.1 2.2 16.7-7.4 19.8-25.6 1.7-13.7-3-26.5-1.8-23.5-19.4-39.1-4.9-3.8-9.9-7.4-15-27-45.9-30.1-24.2-16.9-53.5-12-9.9 1.7-18.8 6.1-40.4-3.8-61.8 30.2-27.7 12-35.1 41.4-1.5 7.3-1.6 14.7-11.6 14.8-11.9 33.6-12.5-83.5 50.8-138.6 34.9-27.3 79.2-31.4zm7.8 64.2q12-0.1 23.4 4 3.5 1.2 4.3 4.8 7.9 36.9 0.7 73.9-1.1 1.2-2.8 1-5.8-45.9-34.8-81.4 4.7-1.3 9.2-2.3zm-38.8 6.4q3 0.4 5.6 1.9 32.8 33.3 36.8 79.9-1.9 1.2-3.8 0.5-19.9-46.1-64.6-68.9 10.8-11.1 26-13.4zm89.3 76.9q4.8-33.2 0.9-66.5 0.2-0.9 0.5-1.8 11.8 4.5 19 14.9 1.2 2.2 1.3 4.6-2.6 28.3-21.7 48.8zm-133.2-47q46.8 18.8 64.9 66-0.8 2.1-2.3 3.6-27.8-27.7-65.8-38.3-9.1-2.1-18.4-2.4 3.9-19.7 21.6-28.9zm173.6 14.6q8.3 9.9 7.3 23-6.8 13.3-18.2 23.1-2.5 2.6-5.6 0.9-2.3-1.1-4.1-3 15.1-19.7 20.6-44zm-200.9 35.7q24.1 0.1 44.8 12.2 19.1 10.8 34 27.1-1 1.9-1.8 3.9-39.8-16.8-79.5 0.1-9.5-22.3 2.5-43.3zm31.3 56.2q22.6-0.8 42.8 9.1 1.5 1.7 0.7 3.8-23 4.2-41.1 18.9-6.6 6.2-12.3 13-19.8-12.7-19.1-36.3 6-3.5 12.7-5.3 8.2-1.9 16.3-3.2zm46.7 34.3q2-0.3 3.3 1.1 2.9 6.5 7.6 11.7 7.9 16.1-6.5 26.7-2.8 1.6-6.1 1.8-16-3.9-30.5-11.6-2.5-3.1-5.8-5.4-0.5-0.8 0-1.5 10-13 25.3-19 6.5-1.8 12.7-3.8zm82.5-93.8q-0.5 0.5 0 0zm-188.1 25q1 0.6 0 0zm2.5 10.3q1 0.5 0 0zm1 3.5q1 0.5 0 0zm4 11.2q1 0.6 0 0zm1.5 3.6q1.1 0.5 0 0zm0.5 1q1.1 0.6 0 0zm5.6 11.3q1 0.5 0 0z"/></svg>